<svg width="60" height="55" viewBox="0 0 60 55" fill="none" xmlns="http://www.w3.org/2000/svg">
<path d="M51.9133 5.53167C51.28 3.66333 49.5067 2.33333 47.4167 2.33333H12.5833C10.4933 2.33333 8.75167 3.66333 8.08667 5.53167L1.5 24.5V49.8333C1.5 51.575 2.925 53 4.66667 53H7.83333C9.575 53 11 51.575 11 49.8333V46.6667H49V49.8333C49 51.575 50.425 53 52.1667 53H55.3333C57.075 53 58.5 51.575 58.5 49.8333V24.5L51.9133 5.53167ZM12.5833 37.1667C9.955 37.1667 7.83333 35.045 7.83333 32.4167C7.83333 29.7883 9.955 27.6667 12.5833 27.6667C15.2117 27.6667 17.3333 29.7883 17.3333 32.4167C17.3333 35.045 15.2117 37.1667 12.5833 37.1667ZM47.4167 37.1667C44.7883 37.1667 42.6667 35.045 42.6667 32.4167C42.6667 29.7883 44.7883 27.6667 47.4167 27.6667C50.045 27.6667 52.1667 29.7883 52.1667 32.4167C52.1667 35.045 50.045 37.1667 47.4167 37.1667ZM7.83333 21.3333L12.5833 7.08333H47.4167L52.1667 21.3333H7.83333Z" stroke="#595959" stroke-width="3"/>
</svg>
