<svg width="70" height="70" viewBox="0 0 70 70" fill="none" xmlns="http://www.w3.org/2000/svg">
<path d="M35 1.66666C16.6916 1.66666 1.83331 16.5249 1.83331 34.8333C1.83331 53.1418 16.6916 68 35 68C53.3084 68 68.1667 53.1418 68.1667 34.8333C68.1667 16.5249 53.3084 1.66666 35 1.66666ZM22.3333 50.75C18.7917 50.75 15.9166 47.8749 15.9166 44.3333C15.9166 40.7918 18.7917 37.9167 22.3333 37.9167C25.8749 37.9167 28.75 40.7918 28.75 44.3333C28.75 47.8749 25.8749 50.75 22.3333 50.75ZM28.5833 22.1667C28.5833 18.6251 31.4584 15.75 35 15.75C38.5416 15.75 41.4166 18.6251 41.4166 22.1667C41.4166 25.7082 38.5416 28.5833 35 28.5833C31.4584 28.5833 28.5833 25.7082 28.5833 22.1667ZM47.6666 50.75C44.1251 50.75 41.25 47.8749 41.25 44.3333C41.25 40.7918 44.1251 37.9167 47.6666 37.9167C51.2082 37.9167 54.0833 40.7918 54.0833 44.3333C54.0833 47.8749 51.2082 50.75 47.6666 50.75Z" stroke="#595959" stroke-width="3"/>
</svg>
